<svg xmlns="http://www.w3.org/2000/svg" width="1em" height="1em" viewBox="0 0 24 24" fill="white" class="text-current shrink-0 w-4 h-4 m-0 my-1 mx-0"><g><path d="M18.881 8.288q.648 0 1.133.494.486.495.486 1.154v1.648a1.7 1.7 0 0 1-.121.618l-2.429 5.81a1.66 1.66 0 0 1-.607.7q-.425.288-.89.288H9.975q-.668 0-1.143-.484a1.6 1.6 0 0 1-.476-1.164V8.968q0-.33.132-.629.13-.299.354-.525l4.392-4.45a1.3 1.3 0 0 1 1.517-.206q.385.207.557.577.172.371.07.762l-.91 3.79zM5.119 19q-.668 0-1.143-.484a1.6 1.6 0 0 1-.476-1.164V9.936q0-.68.476-1.164a1.55 1.55 0 0 1 1.143-.484q.667 0 1.144.484.475.484.475 1.164v7.416q0 .68-.476 1.164A1.55 1.55 0 0 1 5.12 19"></path></g></svg>